HIERARCHY
ROOT Hips
{
	OFFSET 0.00000 0.00000 0.00000
	CHANNELS 6 Xposition Yposition Zposition Zrotation Yrotation Xrotation 
	JOINT LHipJoint
	{
		OFFSET 0 0 0
		CHANNELS 3 Zrotation Yrotation Xrotation
		JOINT LeftHip
		{
			OFFSET 1.62964 -1.40469 0.78906
			CHANNELS 3 Zrotation Yrotation Xrotation
			JOINT LeftKnee
			{
				OFFSET 2.29640 -6.30932 0.00000
				CHANNELS 3 Zrotation Yrotation Xrotation
				JOINT LeftAnkle
				{
					OFFSET 2.29451 -6.30412 0.00000
					CHANNELS 3 Zrotation Yrotation Xrotation
					JOINT LeftToe
					{
						OFFSET 0.03611 -0.09921 1.56387
						CHANNELS 3 Zrotation Yrotation Xrotation
						End Site
						{
							OFFSET 0.00000 -0.00000 0.80291
						}
					}
				}
			}
		}
	}
	JOINT RHipJoint
	{
		OFFSET 0 0 0
		CHANNELS 3 Zrotation Yrotation Xrotation
		JOINT RightHip
		{
			OFFSET -1.73712 -1.40469 0.78906
			CHANNELS 3 Zrotation Yrotation Xrotation
			JOINT RightKnee
			{
				OFFSET -2.28137 -6.26801 0.00000
				CHANNELS 3 Zrotation Yrotation Xrotation
				JOINT RightAnkle
				{
					OFFSET -2.28681 -6.28298 0.00000
					CHANNELS 3 Zrotation Yrotation Xrotation
					JOINT RightToe
					{
						OFFSET -0.15927 -0.43759 1.61103
						CHANNELS 3 Zrotation Yrotation Xrotation
						End Site
						{
							OFFSET -0.00000 -0.00000 0.84630
						}
					}
				}
			}
		}
	}
	JOINT lowerback
	{
		OFFSET 0 0 0
		CHANNELS 3 Zrotation Yrotation Xrotation
		JOINT Chest
		{
			OFFSET -0.04227 2.04338 -0.00225
			CHANNELS 3 Zrotation Yrotation Xrotation
			JOINT Chest2
			{
				OFFSET -0.02148 2.04482 -0.04273
				CHANNELS 3 Zrotation Yrotation Xrotation
				JOINT lowerneck
				{
					OFFSET 0 0 0
					CHANNELS 3 Zrotation Yrotation Xrotation
					JOINT Neck
					{
						OFFSET 0.09180 1.44629 0.19359
						CHANNELS 3 Zrotation Yrotation Xrotation
						JOINT Head
						{
							OFFSET 0.00887 1.40645 0.14750
							CHANNELS 3 Zrotation Yrotation Xrotation
							End Site
							{
								OFFSET -0.00669 1.50671 0.03707
							}
						}
					}
				}
				JOINT LeftCollar
				{
					OFFSET 0 0 0
					CHANNELS 3 Zrotation Yrotation Xrotation
					JOINT LeftShoulder
					{
						OFFSET 2.17674 1.86763 -0.06520
CHANNELS 3 Zrotation Xrotation Yrotation
						JOINT LeftElbow
						{
OFFSET 0 -4.657760 0.000000
CHANNELS 3 Zrotation Xrotation Yrotation
							JOINT LeftWrist
							{
OFFSET 0 -3.555390 0.000000
CHANNELS 3 Zrotation Xrotation Yrotation
								JOINT lhand
								{
									OFFSET 0 0 0
CHANNELS 3 Zrotation Xrotation Yrotation
									JOINT LFingers
									{
OFFSET 0 -0.707260 0.000000
CHANNELS 3 Zrotation Xrotation Yrotation
										End Site
										{
OFFSET 0 -0.570220 0.000000
										}
									}
								}
								JOINT LThumb
								{
OFFSET 0 0.000000 0.000000
CHANNELS 3 Zrotation Xrotation Yrotation
									End Site
									{
OFFSET 0 -0.578920 0.578920
									}
								}
							}
						}
					}
				}
				JOINT RightCollar
				{
					OFFSET 0 0 0
					CHANNELS 3 Zrotation Yrotation Xrotation
					JOINT RightShoulder
					{
						OFFSET -2.80694 1.55459 -0.32496
CHANNELS 3 Zrotation Xrotation Yrotation
						JOINT RightElbow
						{
OFFSET 0 -4.719250 -0.000000
CHANNELS 3 Zrotation Xrotation Yrotation
							JOINT RightWrist
							{
OFFSET 0 -3.569900 0.000000
CHANNELS 3 Zrotation Xrotation Yrotation
								JOINT rhand
								{
									OFFSET 0 0 0
CHANNELS 3 Zrotation Xrotation Yrotation
									JOINT RFingers
									{
OFFSET 0 -0.507760 0.000000
CHANNELS 3 Zrotation Xrotation Yrotation
										End Site
										{
OFFSET 0 -0.409370 0.000000
										}
									}
								}
								JOINT RThumb
								{
OFFSET 0 0.000000 0.000000
CHANNELS 3 Zrotation Xrotation Yrotation
									End Site
									{
OFFSET 0 -0.415620 0.415620
									}
								}
							}
						}
					}
				}
			}
		}
	}
}
MOTION
Frames: 9
Frame Time: 0.008333333333333333
8.896800 16.363700 31.203100 179.627000 -1.014500 -155.755000 0.000000 0.000000 0.000000 -17.564800 -15.310900 -18.249100 0.164600 2.613800 7.205300 0.216200 1.033200 -9.222000 5.383100 -13.802700 -42.452700 0.000000 0.000000 0.000000 17.809400 12.937400 -18.979200 -0.161000 -2.585300 7.126100 -1.879700 4.037800 -24.962400 -0.290900 3.468300 -9.585300 -4.734200 -0.747300 -24.398600 -0.582100 -0.381600 -3.067200 1.891000 -0.659800 10.217500 -2.575200 -3.096400 -0.965200 5.988300 -4.639600 -14.532200 2.687600 -2.870800 -4.434600 0.000000 -0.000000 0.000000 3.303600 -1.574500 -14.694400 7.575500 -12.862400 0.855100 21.894300 11.014300 9.960400 0.000000 0.000000 0.000000 -7.125000 0.000000 0.000000 -3.627900 19.274000 -2.231500 0.000000 -0.000000 0.000000 2.207500 2.592500 4.711900 -12.002500 -19.808400 -2.103100 -12.826700 17.606200 55.149800 0.000000 0.000000 0.000000 7.125000 0.000000 -0.000000 75.190500 76.513800 -61.408900
8.905361 16.358972 31.163278 180.310159 -1.887660 -156.876573 0.000000 0.000000 0.000000 -16.564285 -15.195247 -16.980779 0.159025 2.569641 7.082742 0.215230 0.934769 -9.154565 5.237579 -13.646474 -41.839284 0.000000 0.000000 0.000000 18.958342 14.453708 -16.547772 -0.133779 -2.357520 6.494803 -1.935154 1.377761 -25.931153 -0.367208 3.892529 -10.774602 -4.023373 -0.879833 -23.727559 -0.317481 -0.694037 -2.679764 1.686187 -0.747607 10.320797 -2.664840 -3.052150 -0.946604 6.065580 -4.563181 -14.442234 2.725333 -2.826702 -4.406060 0.000000 0.000000 0.000000 3.348633 -1.920390 -11.290893 6.836071 -11.649057 0.698302 21.684796 13.224589 12.119393 0.000000 0.000000 0.000000 -7.125000 0.000000 0.000000 -3.844592 16.986049 -2.559311 0.000000 0.000000 0.000000 2.227959 2.751227 3.687844 -11.669386 -19.306967 -1.991713 -14.611112 19.359746 54.407008 0.000000 0.000000 0.000000 7.125000 0.000000 0.000000 71.715928 77.071881 -58.717929
8.898902 16.352824 31.152891 180.344666 -1.564140 -156.579893 0.000000 0.000000 0.000000 -16.545341 -15.300266 -17.133389 0.153409 2.523203 6.954116 0.214046 1.277213 -9.301411 5.276448 -13.688421 -42.003481 0.000000 0.000000 0.000000 18.808980 14.853300 -16.906569 -0.144273 -2.446269 6.740728 -1.951756 1.465315 -26.023898 -0.343602 3.766357 -10.420276 -3.955594 -0.760606 -24.179871 -0.361792 -0.550949 -2.706490 1.638480 -0.688778 10.522134 -2.687384 -3.050081 -0.959364 6.099233 -4.558135 -14.435645 2.740248 -2.824850 -4.400365 0.000000 0.000000 0.000000 3.390351 -2.009817 -7.835616 6.377967 -10.890997 0.608685 22.018771 15.798915 13.779494 0.000000 0.000000 0.000000 -7.125000 0.000000 0.000000 -3.686159 15.183235 -2.597108 0.000000 0.000000 0.000000 2.258220 2.795296 2.434457 -11.305071 -18.754167 -1.872946 -16.380785 21.423062 53.545287 0.000000 0.000000 0.000000 7.125000 0.000000 0.000000 67.503522 77.575427 -55.321221
8.895915 16.350391 31.191844 179.721888 -0.891912 -154.978324 0.000000 0.000000 0.000000 -17.192082 -15.399294 -19.242501 0.173535 2.683444 7.398629 0.222839 1.002561 -9.340224 5.379961 -13.799349 -42.439441 0.000000 0.000000 0.000000 17.527272 14.679338 -19.573386 -0.183606 -2.759810 7.610877 -1.947401 2.746954 -25.678981 -0.341706 3.756483 -10.392611 -4.668774 -0.711460 -25.246484 -0.599903 -0.364077 -3.210929 1.830163 -0.676518 10.500909 -2.663906 -3.096210 -1.112963 6.158974 -4.618290 -14.366632 2.749688 -2.858627 -4.341118 0.000000 0.000000 0.000000 3.505591 -1.825503 -5.356921 6.172398 -10.549445 0.570414 22.278601 17.270595 15.340798 0.000000 0.000000 0.000000 -7.125000 0.000000 0.000000 -3.593904 13.490351 -2.662016 0.000000 0.000000 0.000000 2.327284 2.812404 0.889316 -10.905907 -18.143703 -1.746745 -17.917480 23.380517 52.310671 0.000000 0.000000 0.000000 7.125000 0.000000 0.000000 61.446637 77.833119 -50.043583
8.890208 16.347099 31.168835 179.639359 -1.008638 -155.045078 0.000000 0.000000 0.000000 -17.332664 -15.262424 -19.097700 0.171289 2.666145 7.350738 0.227133 0.752859 -9.309457 5.387525 -13.807161 -42.470709 0.000000 0.000000 0.000000 17.414318 14.856258 -19.252485 -0.180395 -2.735662 7.543748 -1.856887 2.191348 -25.111260 -0.600331 4.552082 -12.727190 -4.662833 -0.761658 -25.440383 -0.640165 -0.406591 -3.126823 1.764891 -0.697479 10.702170 -2.723795 -2.994803 -1.111734 6.127377 -4.470250 -14.243637 2.740742 -2.772835 -4.303949 0.000000 0.000000 0.000000 3.843035 -1.172097 -6.565865 6.313806 -10.783933 0.597390 22.057849 15.377205 16.018352 0.000000 0.000000 0.000000 -7.125000 0.000000 0.000000 -3.784093 12.796028 -2.857305 0.000000 0.000000 0.000000 2.371962 2.783263 -0.470454 -10.496932 -17.512771 -1.621586 -19.618119 25.075253 51.104120 0.000000 0.000000 0.000000 7.125000 0.000000 0.000000 55.207324 78.064214 -44.704536
8.879139 16.337873 31.153025 179.782529 -0.679357 -154.774038 0.000000 0.000000 0.000000 -17.184737 -15.377465 -19.193668 0.164127 2.609670 7.193989 0.220704 1.177932 -9.384956 5.264286 -13.675374 -41.952348 0.000000 0.000000 0.000000 17.345184 15.220456 -19.634663 -0.194998 -2.843832 7.844312 -1.216608 0.541637 -20.687298 -2.077960 9.026649 -25.878805 -4.424228 -0.565423 -25.977374 -0.714917 -0.194729 -3.103152 1.610349 -0.600504 10.998844 -2.888641 -2.882879 -1.451367 6.275681 -4.284974 -13.832346 2.788512 -2.662469 -4.092975 0.000000 0.000000 0.000000 4.435657 -0.129512 -10.949712 6.790477 -11.573425 0.689477 21.499586 11.417797 14.723392 0.000000 0.000000 0.000000 -7.125000 0.000000 0.000000 -4.088641 14.236262 -2.963490 0.000000 0.000000 0.000000 2.440474 2.623417 -1.884392 -10.075247 -16.856795 -1.496989 -22.126775 27.496677 49.726874 0.000000 0.000000 0.000000 7.125000 0.000000 0.000000 47.493724 78.456917 -38.334108
8.875715 16.338068 31.142346 179.814017 -0.574282 -154.819439 0.000000 0.000000 0.000000 -17.192756 -15.450251 -18.928377 0.154676 2.534155 6.984492 0.213552 1.427941 -9.371790 5.233516 -13.641772 -41.821502 0.000000 0.000000 0.000000 17.332039 15.467182 -19.523920 -0.199334 -2.875059 7.931215 -1.229015 0.409545 -20.835292 -2.100206 9.071799 -26.020257 -4.453018 -0.522166 -25.969942 -0.723367 -0.125023 -3.081390 1.641616 -0.568308 11.015592 -2.781340 -2.805201 -1.717753 6.158463 -4.175213 -13.552482 2.705632 -2.596278 -3.950156 0.000000 0.000000 0.000000 4.592403 -0.167967 -8.481184 6.308262 -10.774883 0.595994 21.151705 14.468407 13.361596 0.000000 0.000000 0.000000 -7.125000 0.000000 0.000000 -4.261827 15.717769 -2.956058 0.000000 0.000000 0.000000 2.459322 2.578272 -3.411825 -9.708037 -16.281304 -1.392211 -22.704905 28.732968 49.371071 0.000000 0.000000 0.000000 7.125000 0.000000 0.000000 45.495048 78.507236 -36.661447
8.873383 16.337291 31.135297 179.810342 -0.544937 -154.767801 0.000000 0.000000 0.000000 -17.203880 -15.495305 -18.884738 0.150289 2.498226 6.884676 0.210663 1.560685 -9.386905 5.373010 -13.791801 -42.410092 0.000000 0.000000 0.000000 17.306158 15.465138 -19.633741 -0.204728 -2.913547 8.038173 -1.229432 0.360232 -20.854803 -2.120436 9.112571 -26.148056 -4.551323 -0.629501 -26.013163 -0.580615 -0.260213 -3.122277 1.811850 -0.640779 10.999850 -2.911460 -2.677146 -1.746272 6.056052 -4.011915 -13.539589 2.689393 -2.503362 -3.948511 0.000000 0.000000 0.000000 4.464732 -0.088339 -5.562335 5.878782 -10.059589 0.518191 21.325432 16.829797 13.732340 0.000000 0.000000 0.000000 -7.125000 0.000000 0.000000 -4.158066 15.306835 -2.920702 0.000000 0.000000 0.000000 2.201761 2.652377 -4.480959 -9.423306 -15.832409 -1.313328 -23.094732 29.850251 49.586968 0.000000 0.000000 0.000000 7.125000 0.000000 0.000000 46.093110 78.789378 -37.409829
8.871365 16.335489 31.127244 179.837629 -0.570323 -154.772856 0.000000 0.000000 0.000000 -17.174681 -15.503214 -18.829501 0.148924 2.486548 6.852268 0.212470 1.593488 -9.441210 5.398864 -13.818996 -42.517934 0.000000 0.000000 0.000000 17.370839 15.249632 -19.714255 -0.207112 -2.930116 8.084258 -1.218568 0.392120 -20.751732 -2.184472 9.239146 -26.547061 -4.571317 -0.655095 -26.044603 -0.527758 -0.289022 -3.106825 1.872746 -0.655989 11.036372 -2.895180 -2.623356 -1.800479 5.982892 -3.950346 -13.568607 2.659590 -2.472612 -3.953181 0.000000 0.000000 0.000000 4.562348 -0.047190 -3.562202 5.547648 -9.505422 0.461825 21.414323 18.540798 13.681086 0.000000 0.000000 0.000000 -7.125000 0.000000 0.000000 -4.094971 15.352021 -2.872253 0.000000 0.000000 0.000000 2.160726 2.727070 -5.613638 -9.238395 -15.539519 -1.263293 -23.680229 31.112510 50.020073 0.000000 0.000000 0.000000 7.125000 0.000000 0.000000 47.612783 79.263953 -39.130485
